<!-- Guitar Model Images SVG Sprite -->
<svg xmlns="http://www.w3.org/2000/svg" style="display: none;">
  
  <!-- Fender Player Stratocaster -->
  <symbol id="fender-player-strat" viewBox="0 0 200 500">
    <!-- Headstock -->
    <rect x="85" y="20" width="30" height="40" fill="#F5DEB3" stroke="#DEB887" stroke-width="2"/>
    <!-- Tuning pegs -->
    <circle cx="75" cy="35" r="4" fill="#C0C0C0"/>
    <circle cx="75" cy="45" r="4" fill="#C0C0C0"/>
    <circle cx="75" cy="55" r="4" fill="#C0C0C0"/>
    <circle cx="125" cy="35" r="4" fill="#C0C0C0"/>
    <circle cx="125" cy="45" r="4" fill="#C0C0C0"/>
    <circle cx="125" cy="55" r="4" fill="#C0C0C0"/>
    
    <!-- Neck -->
    <rect x="90" y="60" width="20" height="120" fill="#F5DEB3"/>
    <!-- Fretboard -->
    <rect x="92" y="60" width="16" height="120" fill="#8B4513"/>
    
    <!-- Frets -->
    <line x1="92" y1="75" x2="108" y2="75" stroke="#C0C0C0" stroke-width="1"/>
    <line x1="92" y1="90" x2="108" y2="90" stroke="#C0C0C0" stroke-width="1"/>
    <line x1="92" y1="105" x2="108" y2="105" stroke="#C0C0C0" stroke-width="1"/>
    <line x1="92" y1="120" x2="108" y2="120" stroke="#C0C0C0" stroke-width="1"/>
    <line x1="92" y1="135" x2="108" y2="135" stroke="#C0C0C0" stroke-width="1"/>
    <line x1="92" y1="150" x2="108" y2="150" stroke="#C0C0C0" stroke-width="1"/>
    <line x1="92" y1="165" x2="108" y2="165" stroke="#C0C0C0" stroke-width="1"/>
    
    <!-- Stratocaster Body -->
    <path d="M100 180
             C75 180 50 190 40 210
             C30 230 35 250 45 270
             L50 300
             C45 320 50 340 60 360
             L70 390
             C80 410 100 420 100 420
             C100 420 120 410 130 390
             L140 360
             C150 340 155 320 150 300
             L155 270
             C165 250 170 230 160 210
             C150 190 125 180 100 180 Z" 
          fill="#FF6B35" stroke="#E55A2B" stroke-width="2"/>
    
    <!-- Pickguard -->
    <path d="M55 200 C50 200 45 205 45 210 L45 350 C45 355 50 360 55 360 L95 360 C100 360 105 355 105 350 L105 210 C105 205 100 200 95 200 Z" 
          fill="#F8F9FA" opacity="0.9"/>
    
    <!-- Pickups -->
    <rect x="60" y="220" width="30" height="8" rx="4" fill="#1a1a1a"/>
    <rect x="60" y="260" width="30" height="8" rx="4" fill="#1a1a1a"/>
    <rect x="60" y="300" width="30" height="8" rx="4" fill="#1a1a1a"/>
    
    <!-- Bridge -->
    <rect x="80" y="380" width="40" height="12" rx="2" fill="#C0C0C0"/>
    
    <!-- Strings -->
    <line x1="95" y1="60" x2="95" y2="420" stroke="#E8E8E8" stroke-width="1"/>
    <line x1="98" y1="60" x2="98" y2="420" stroke="#E8E8E8" stroke-width="1"/>
    <line x1="101" y1="60" x2="101" y2="420" stroke="#E8E8E8" stroke-width="1"/>
    <line x1="104" y1="60" x2="104" y2="420" stroke="#E8E8E8" stroke-width="1"/>
    <line x1="107" y1="60" x2="107" y2="420" stroke="#E8E8E8" stroke-width="1"/>
    <line x1="110" y1="60" x2="110" y2="420" stroke="#E8E8E8" stroke-width="1"/>
  </symbol>

  <!-- Gibson Les Paul Standard -->
  <symbol id="gibson-les-paul-standard" viewBox="0 0 200 500">
    <!-- Headstock -->
    <rect x="85" y="20" width="30" height="40" fill="#8B4513" stroke="#654321" stroke-width="2"/>
    <!-- Gibson logo area -->
    <rect x="90" y="30" width="20" height="8" fill="#FFD700"/>
    
    <!-- Tuning pegs -->
    <circle cx="75" cy="35" r="4" fill="#FFD700"/>
    <circle cx="75" cy="50" r="4" fill="#FFD700"/>
    <circle cx="75" cy="65" r="4" fill="#FFD700"/>
    <circle cx="125" cy="35" r="4" fill="#FFD700"/>
    <circle cx="125" cy="50" r="4" fill="#FFD700"/>
    <circle cx="125" cy="65" r="4" fill="#FFD700"/>
    
    <!-- Neck -->
    <rect x="90" y="60" width="20" height="120" fill="#8B4513"/>
    <!-- Fretboard -->
    <rect x="92" y="60" width="16" height="120" fill="#654321"/>
    
    <!-- Frets -->
    <line x1="92" y1="75" x2="108" y2="75" stroke="#C0C0C0" stroke-width="1"/>
    <line x1="92" y1="90" x2="108" y2="90" stroke="#C0C0C0" stroke-width="1"/>
    <line x1="92" y1="105" x2="108" y2="105" stroke="#C0C0C0" stroke-width="1"/>
    <line x1="92" y1="120" x2="108" y2="120" stroke="#C0C0C0" stroke-width="1"/>
    <line x1="92" y1="135" x2="108" y2="135" stroke="#C0C0C0" stroke-width="1"/>
    <line x1="92" y1="150" x2="108" y2="150" stroke="#C0C0C0" stroke-width="1"/>
    
    <!-- Les Paul Body -->
    <path d="M100 180
             C70 180 40 200 40 240
             L40 380
             C40 420 70 440 100 440
             C130 440 160 420 160 380
             L160 240
             C160 200 130 180 100 180 Z" 
          fill="#8B0000" stroke="#654321" stroke-width="2"/>
    
    <!-- Maple cap -->
    <path d="M100 180
             C75 180 50 195 50 220
             L50 300
             C50 325 75 340 100 340
             C125 340 150 325 150 300
             L150 220
             C150 195 125 180 100 180 Z" 
          fill="#DEB887" opacity="0.3"/>
    
    <!-- Single cutaway -->
    <path d="M40 260 C30 270 30 290 40 300" fill="none" stroke="#654321" stroke-width="2"/>
    
    <!-- Humbuckers -->
    <rect x="75" y="240" width="50" height="20" rx="10" fill="#1a1a1a"/>
    <rect x="75" y="320" width="50" height="20" rx="10" fill="#1a1a1a"/>
    
    <!-- Bridge -->
    <rect x="70" y="380" width="60" height="15" rx="3" fill="#FFD700"/>
    
    <!-- Strings -->
    <line x1="95" y1="60" x2="95" y2="440" stroke="#E8E8E8" stroke-width="1"/>
    <line x1="98" y1="60" x2="98" y2="440" stroke="#E8E8E8" stroke-width="1"/>
    <line x1="101" y1="60" x2="101" y2="440" stroke="#E8E8E8" stroke-width="1"/>
    <line x1="104" y1="60" x2="104" y2="440" stroke="#E8E8E8" stroke-width="1"/>
    <line x1="107" y1="60" x2="107" y2="440" stroke="#E8E8E8" stroke-width="1"/>
    <line x1="110" y1="60" x2="110" y2="440" stroke="#E8E8E8" stroke-width="1"/>
  </symbol>

  <!-- Fender Telecaster -->
  <symbol id="fender-telecaster" viewBox="0 0 200 500">
    <!-- Headstock -->
    <rect x="85" y="20" width="30" height="40" fill="#F5DEB3" stroke="#DEB887" stroke-width="2"/>
    
    <!-- Tuning pegs -->
    <circle cx="75" cy="35" r="4" fill="#C0C0C0"/>
    <circle cx="75" cy="45" r="4" fill="#C0C0C0"/>
    <circle cx="75" cy="55" r="4" fill="#C0C0C0"/>
    <circle cx="125" cy="35" r="4" fill="#C0C0C0"/>
    <circle cx="125" cy="45" r="4" fill="#C0C0C0"/>
    <circle cx="125" cy="55" r="4" fill="#C0C0C0"/>
    
    <!-- Neck -->
    <rect x="90" y="60" width="20" height="120" fill="#F5DEB3"/>
    <!-- Fretboard -->
    <rect x="92" y="60" width="16" height="120" fill="#F5DEB3"/>
    
    <!-- Frets -->
    <line x1="92" y1="75" x2="108" y2="75" stroke="#C0C0C0" stroke-width="1"/>
    <line x1="92" y1="90" x2="108" y2="90" stroke="#C0C0C0" stroke-width="1"/>
    <line x1="92" y1="105" x2="108" y2="105" stroke="#C0C0C0" stroke-width="1"/>
    <line x1="92" y1="120" x2="108" y2="120" stroke="#C0C0C0" stroke-width="1"/>
    <line x1="92" y1="135" x2="108" y2="135" stroke="#C0C0C0" stroke-width="1"/>
    <line x1="92" y1="150" x2="108" y2="150" stroke="#C0C0C0" stroke-width="1"/>
    
    <!-- Telecaster Body -->
    <path d="M100 180
             C80 180 55 190 55 210
             L55 380
             C55 400 80 420 100 420
             C120 420 145 400 145 380
             L145 210
             C145 190 120 180 100 180 Z" 
          fill="#FFD700" stroke="#DAA520" stroke-width="2"/>
    
    <!-- Single cutaway -->
    <path d="M55 240 C45 250 45 270 55 280" fill="none" stroke="#DAA520" stroke-width="2"/>
    
    <!-- Pickups -->
    <rect x="75" y="220" width="35" height="12" rx="6" fill="#1a1a1a"/>
    <rect x="75" y="320" width="35" height="12" rx="6" fill="#1a1a1a"/>
    
    <!-- Bridge -->
    <rect x="75" y="380" width="50" height="15" rx="3" fill="#C0C0C0"/>
    
    <!-- Strings -->
    <line x1="95" y1="60" x2="95" y2="420" stroke="#E8E8E8" stroke-width="1"/>
    <line x1="98" y1="60" x2="98" y2="420" stroke="#E8E8E8" stroke-width="1"/>
    <line x1="101" y1="60" x2="101" y2="420" stroke="#E8E8E8" stroke-width="1"/>
    <line x1="104" y1="60" x2="104" y2="420" stroke="#E8E8E8" stroke-width="1"/>
    <line x1="107" y1="60" x2="107" y2="420" stroke="#E8E8E8" stroke-width="1"/>
    <line x1="110" y1="60" x2="110" y2="420" stroke="#E8E8E8" stroke-width="1"/>
  </symbol>

  <!-- Martin D-28 Dreadnought -->
  <symbol id="martin-d28" viewBox="0 0 200 500">
    <!-- Headstock -->
    <rect x="80" y="20" width="40" height="40" fill="#8B4513" stroke="#654321" stroke-width="2"/>
    <!-- Martin logo -->
    <rect x="90" y="30" width="20" height="8" fill="#FFD700"/>
    
    <!-- Tuning pegs -->
    <circle cx="70" cy="35" r="4" fill="#C0C0C0"/>
    <circle cx="70" cy="50" r="4" fill="#C0C0C0"/>
    <circle cx="70" cy="65" r="4" fill="#C0C0C0"/>
    <circle cx="130" cy="35" r="4" fill="#C0C0C0"/>
    <circle cx="130" cy="50" r="4" fill="#C0C0C0"/>
    <circle cx="130" cy="65" r="4" fill="#C0C0C0"/>
    
    <!-- Neck -->
    <rect x="85" y="60" width="30" height="120" fill="#8B4513"/>
    <!-- Fretboard -->
    <rect x="88" y="60" width="24" height="120" fill="#654321"/>
    
    <!-- Frets -->
    <line x1="88" y1="75" x2="112" y2="75" stroke="#C0C0C0" stroke-width="1"/>
    <line x1="88" y1="90" x2="112" y2="90" stroke="#C0C0C0" stroke-width="1"/>
    <line x1="88" y1="105" x2="112" y2="105" stroke="#C0C0C0" stroke-width="1"/>
    <line x1="88" y1="120" x2="112" y2="120" stroke="#C0C0C0" stroke-width="1"/>
    <line x1="88" y1="135" x2="112" y2="135" stroke="#C0C0C0" stroke-width="1"/>
    <line x1="88" y1="150" x2="112" y2="150" stroke="#C0C0C0" stroke-width="1"/>
    
    <!-- Dreadnought Body -->
    <path d="M100 180
             C60 180 30 200 30 240
             L30 380
             C30 420 60 450 100 450
             C140 450 170 420 170 380
             L170 240
             C170 200 140 180 100 180 Z" 
          fill="#DEB887" stroke="#CD853F" stroke-width="2"/>
    
    <!-- Sound hole -->
    <circle cx="100" cy="260" r="25" fill="#1a1a1a"/>
    <!-- Rosette -->
    <circle cx="100" cy="260" r="30" fill="none" stroke="#8B4513" stroke-width="2"/>
    <circle cx="100" cy="260" r="35" fill="none" stroke="#654321" stroke-width="1"/>
    
    <!-- Bridge -->
    <rect x="75" y="380" width="50" height="8" rx="4" fill="#654321"/>
    
    <!-- Strings -->
    <line x1="95" y1="60" x2="95" y2="450" stroke="#E8E8E8" stroke-width="1"/>
    <line x1="98" y1="60" x2="98" y2="450" stroke="#E8E8E8" stroke-width="1"/>
    <line x1="101" y1="60" x2="101" y2="450" stroke="#E8E8E8" stroke-width="1"/>
    <line x1="104" y1="60" x2="104" y2="450" stroke="#E8E8E8" stroke-width="1"/>
    <line x1="107" y1="60" x2="107" y2="450" stroke="#E8E8E8" stroke-width="1"/>
    <line x1="110" y1="60" x2="110" y2="450" stroke="#E8E8E8" stroke-width="1"/>
  </symbol>

  <!-- Gibson J-45 -->
  <symbol id="gibson-j45" viewBox="0 0 200 500">
    <!-- Headstock -->
    <rect x="80" y="20" width="40" height="40" fill="#8B4513" stroke="#654321" stroke-width="2"/>
    <!-- Gibson logo -->
    <rect x="90" y="30" width="20" height="8" fill="#FFD700"/>
    
    <!-- Tuning pegs -->
    <circle cx="70" cy="35" r="4" fill="#FFD700"/>
    <circle cx="70" cy="50" r="4" fill="#FFD700"/>
    <circle cx="70" cy="65" r="4" fill="#FFD700"/>
    <circle cx="130" cy="35" r="4" fill="#FFD700"/>
    <circle cx="130" cy="50" r="4" fill="#FFD700"/>
    <circle cx="130" cy="65" r="4" fill="#FFD700"/>
    
    <!-- Neck -->
    <rect x="85" y="60" width="30" height="120" fill="#8B4513"/>
    <!-- Fretboard -->
    <rect x="88" y="60" width="24" height="120" fill="#654321"/>
    
    <!-- Frets -->
    <line x1="88" y1="75" x2="112" y2="75" stroke="#C0C0C0" stroke-width="1"/>
    <line x1="88" y1="90" x2="112" y2="90" stroke="#C0C0C0" stroke-width="1"/>
    <line x1="88" y1="105" x2="112" y2="105" stroke="#C0C0C0" stroke-width="1"/>
    <line x1="88" y1="120" x2="112" y2="120" stroke="#C0C0C0" stroke-width="1"/>
    <line x1="88" y1="135" x2="112" y2="135" stroke="#C0C0C0" stroke-width="1"/>
    <line x1="88" y1="150" x2="112" y2="150" stroke="#C0C0C0" stroke-width="1"/>
    
    <!-- J-45 Body -->
    <path d="M100 180
             C65 180 35 200 35 240
             L35 375
             C35 415 65 445 100 445
             C135 445 165 415 165 375
             L165 240
             C165 200 135 180 100 180 Z" 
          fill="#CD853F" stroke="#8B4513" stroke-width="2"/>
    
    <!-- Sound hole -->
    <circle cx="100" cy="260" r="22" fill="#1a1a1a"/>
    <!-- Rosette -->
    <circle cx="100" cy="260" r="27" fill="none" stroke="#654321" stroke-width="2"/>
    <circle cx="100" cy="260" r="32" fill="none" stroke="#8B4513" stroke-width="1"/>
    
    <!-- Bridge -->
    <rect x="75" y="375" width="50" height="8" rx="4" fill="#654321"/>
    
    <!-- Strings -->
    <line x1="95" y1="60" x2="95" y2="445" stroke="#E8E8E8" stroke-width="1"/>
    <line x1="98" y1="60" x2="98" y2="445" stroke="#E8E8E8" stroke-width="1"/>
    <line x1="101" y1="60" x2="101" y2="445" stroke="#E8E8E8" stroke-width="1"/>
    <line x1="104" y1="60" x2="104" y2="445" stroke="#E8E8E8" stroke-width="1"/>
    <line x1="107" y1="60" x2="107" y2="445" stroke="#E8E8E8" stroke-width="1"/>
    <line x1="110" y1="60" x2="110" y2="445" stroke="#E8E8E8" stroke-width="1"/>
  </symbol>

  <!-- Gibson SG Standard -->
  <symbol id="gibson-sg-standard" viewBox="0 0 200 500">
    <!-- Headstock -->
    <rect x="85" y="20" width="30" height="40" fill="#8B4513" stroke="#654321" stroke-width="2"/>
    <!-- Gibson logo area -->
    <rect x="90" y="30" width="20" height="8" fill="#FFD700"/>

    <!-- Tuning pegs -->
    <circle cx="75" cy="35" r="4" fill="#FFD700"/>
    <circle cx="75" cy="50" r="4" fill="#FFD700"/>
    <circle cx="75" cy="65" r="4" fill="#FFD700"/>
    <circle cx="125" cy="35" r="4" fill="#FFD700"/>
    <circle cx="125" cy="50" r="4" fill="#FFD700"/>
    <circle cx="125" cy="65" r="4" fill="#FFD700"/>

    <!-- Neck -->
    <rect x="90" y="60" width="20" height="120" fill="#8B4513"/>
    <!-- Fretboard -->
    <rect x="92" y="60" width="16" height="120" fill="#654321"/>

    <!-- Frets -->
    <line x1="92" y1="75" x2="108" y2="75" stroke="#C0C0C0" stroke-width="1"/>
    <line x1="92" y1="90" x2="108" y2="90" stroke="#C0C0C0" stroke-width="1"/>
    <line x1="92" y1="105" x2="108" y2="105" stroke="#C0C0C0" stroke-width="1"/>
    <line x1="92" y1="120" x2="108" y2="120" stroke="#C0C0C0" stroke-width="1"/>
    <line x1="92" y1="135" x2="108" y2="135" stroke="#C0C0C0" stroke-width="1"/>
    <line x1="92" y1="150" x2="108" y2="150" stroke="#C0C0C0" stroke-width="1"/>
    <line x1="92" y1="165" x2="108" y2="165" stroke="#C0C0C0" stroke-width="1"/>

    <!-- SG Body Shape -->
    <path d="M100 180
             C85 180 70 185 60 195
             C50 205 45 220 50 235
             L55 250
             C50 265 45 280 50 295
             L55 310
             C50 325 45 340 50 355
             L60 375
             C70 385 85 390 100 390
             C115 390 130 385 140 375
             L150 355
             C155 340 150 325 145 310
             L150 295
             C155 280 150 265 145 250
             L150 235
             C155 220 150 205 140 195
             C130 185 115 180 100 180 Z"
          fill="#8B0000" stroke="#654321" stroke-width="2"/>

    <!-- Pickups -->
    <rect x="85" y="220" width="30" height="12" rx="6" fill="#2C2C2C"/>
    <rect x="85" y="280" width="30" height="12" rx="6" fill="#2C2C2C"/>

    <!-- Bridge -->
    <rect x="80" y="350" width="40" height="8" rx="4" fill="#C0C0C0"/>

    <!-- Control knobs -->
    <circle cx="75" cy="310" r="6" fill="#C0C0C0"/>
    <circle cx="125" cy="310" r="6" fill="#C0C0C0"/>
    <circle cx="75" cy="330" r="6" fill="#C0C0C0"/>
    <circle cx="125" cy="330" r="6" fill="#C0C0C0"/>

    <!-- Strings -->
    <line x1="95" y1="60" x2="95" y2="350" stroke="#E8E8E8" stroke-width="1"/>
    <line x1="98" y1="60" x2="98" y2="350" stroke="#E8E8E8" stroke-width="1"/>
    <line x1="101" y1="60" x2="101" y2="350" stroke="#E8E8E8" stroke-width="1"/>
    <line x1="104" y1="60" x2="104" y2="350" stroke="#E8E8E8" stroke-width="1"/>
    <line x1="107" y1="60" x2="107" y2="350" stroke="#E8E8E8" stroke-width="1"/>
    <line x1="110" y1="60" x2="110" y2="350" stroke="#E8E8E8" stroke-width="1"/>
  </symbol>

  <!-- Gibson Tony Iommi SG -->
  <symbol id="gibson-sg-iommi" viewBox="0 0 200 500">
    <!-- Headstock -->
    <rect x="85" y="20" width="30" height="40" fill="#1a1a1a" stroke="#000" stroke-width="2"/>
    <!-- Gibson logo area -->
    <rect x="90" y="30" width="20" height="8" fill="#FFD700"/>

    <!-- Tuning pegs -->
    <circle cx="75" cy="35" r="4" fill="#FFD700"/>
    <circle cx="75" cy="50" r="4" fill="#FFD700"/>
    <circle cx="75" cy="65" r="4" fill="#FFD700"/>
    <circle cx="125" cy="35" r="4" fill="#FFD700"/>
    <circle cx="125" cy="50" r="4" fill="#FFD700"/>
    <circle cx="125" cy="65" r="4" fill="#FFD700"/>

    <!-- Neck -->
    <rect x="90" y="60" width="20" height="120" fill="#1a1a1a"/>
    <!-- Fretboard -->
    <rect x="92" y="60" width="16" height="120" fill="#000"/>

    <!-- Frets -->
    <line x1="92" y1="75" x2="108" y2="75" stroke="#C0C0C0" stroke-width="1"/>
    <line x1="92" y1="90" x2="108" y2="90" stroke="#C0C0C0" stroke-width="1"/>
    <line x1="92" y1="105" x2="108" y2="105" stroke="#C0C0C0" stroke-width="1"/>
    <line x1="92" y1="120" x2="108" y2="120" stroke="#C0C0C0" stroke-width="1"/>
    <line x1="92" y1="135" x2="108" y2="135" stroke="#C0C0C0" stroke-width="1"/>
    <line x1="92" y1="150" x2="108" y2="150" stroke="#C0C0C0" stroke-width="1"/>
    <line x1="92" y1="165" x2="108" y2="165" stroke="#C0C0C0" stroke-width="1"/>

    <!-- Cross inlays (Tony Iommi signature) -->
    <g fill="#C0C0C0">
      <path d="M98 82 L102 82 L102 88 L98 88 Z"/>
      <path d="M100 80 L100 90"/>
      <path d="M98 112 L102 112 L102 118 L98 118 Z"/>
      <path d="M100 110 L100 120"/>
      <path d="M98 142 L102 142 L102 148 L98 148 Z"/>
      <path d="M100 140 L100 150"/>
    </g>

    <!-- SG Body Shape (Black) -->
    <path d="M100 180
             C85 180 70 185 60 195
             C50 205 45 220 50 235
             L55 250
             C50 265 45 280 50 295
             L55 310
             C50 325 45 340 50 355
             L60 375
             C70 385 85 390 100 390
             C115 390 130 385 140 375
             L150 355
             C155 340 150 325 145 310
             L150 295
             C155 280 150 265 145 250
             L150 235
             C155 220 150 205 140 195
             C130 185 115 180 100 180 Z"
          fill="#1a1a1a" stroke="#000" stroke-width="2"/>

    <!-- P-90 Pickups (cream colored) -->
    <rect x="82" y="220" width="36" height="15" rx="3" fill="#F5F5DC"/>
    <rect x="82" y="280" width="36" height="15" rx="3" fill="#F5F5DC"/>

    <!-- Bridge -->
    <rect x="80" y="350" width="40" height="8" rx="4" fill="#C0C0C0"/>

    <!-- Control knobs -->
    <circle cx="75" cy="310" r="6" fill="#C0C0C0"/>
    <circle cx="125" cy="310" r="6" fill="#C0C0C0"/>
    <circle cx="75" cy="330" r="6" fill="#C0C0C0"/>
    <circle cx="125" cy="330" r="6" fill="#C0C0C0"/>

    <!-- Strings -->
    <line x1="95" y1="60" x2="95" y2="350" stroke="#E8E8E8" stroke-width="1"/>
    <line x1="98" y1="60" x2="98" y2="350" stroke="#E8E8E8" stroke-width="1"/>
    <line x1="101" y1="60" x2="101" y2="350" stroke="#E8E8E8" stroke-width="1"/>
    <line x1="104" y1="60" x2="104" y2="350" stroke="#E8E8E8" stroke-width="1"/>
    <line x1="107" y1="60" x2="107" y2="350" stroke="#E8E8E8" stroke-width="1"/>
    <line x1="110" y1="60" x2="110" y2="350" stroke="#E8E8E8" stroke-width="1"/>
  </symbol>

  <!-- Epiphone SG Standard Cherry -->
  <symbol id="epiphone-sg-standard-cherry" viewBox="0 0 200 500">
    <!-- Headstock -->
    <rect x="85" y="20" width="30" height="40" fill="#8B4513" stroke="#654321" stroke-width="2"/>
    <!-- Epiphone logo area -->
    <rect x="88" y="30" width="24" height="8" fill="#000"/>
    <text x="100" y="36" text-anchor="middle" font-family="Arial, sans-serif" font-size="6" fill="white">Epiphone</text>

    <!-- Tuning pegs -->
    <circle cx="75" cy="35" r="4" fill="#C0C0C0"/>
    <circle cx="75" cy="50" r="4" fill="#C0C0C0"/>
    <circle cx="75" cy="65" r="4" fill="#C0C0C0"/>
    <circle cx="125" cy="35" r="4" fill="#C0C0C0"/>
    <circle cx="125" cy="50" r="4" fill="#C0C0C0"/>
    <circle cx="125" cy="65" r="4" fill="#C0C0C0"/>

    <!-- Neck -->
    <rect x="90" y="60" width="20" height="120" fill="#8B4513"/>
    <!-- Fretboard -->
    <rect x="92" y="60" width="16" height="120" fill="#654321"/>

    <!-- Frets -->
    <line x1="92" y1="75" x2="108" y2="75" stroke="#C0C0C0" stroke-width="1"/>
    <line x1="92" y1="90" x2="108" y2="90" stroke="#C0C0C0" stroke-width="1"/>
    <line x1="92" y1="105" x2="108" y2="105" stroke="#C0C0C0" stroke-width="1"/>
    <line x1="92" y1="120" x2="108" y2="120" stroke="#C0C0C0" stroke-width="1"/>
    <line x1="92" y1="135" x2="108" y2="135" stroke="#C0C0C0" stroke-width="1"/>
    <line x1="92" y1="150" x2="108" y2="150" stroke="#C0C0C0" stroke-width="1"/>
    <line x1="92" y1="165" x2="108" y2="165" stroke="#C0C0C0" stroke-width="1"/>

    <!-- Position markers -->
    <circle cx="100" cy="82.5" r="2" fill="#FFF"/>
    <circle cx="100" cy="112.5" r="2" fill="#FFF"/>
    <circle cx="100" cy="142.5" r="2" fill="#FFF"/>

    <!-- SG Body Shape (Cherry Red) -->
    <path d="M100 180
             C85 180 70 185 60 195
             C50 205 45 220 50 235
             L55 250
             C50 265 45 280 50 295
             L55 310
             C50 325 45 340 50 355
             L60 375
             C70 385 85 390 100 390
             C115 390 130 385 140 375
             L150 355
             C155 340 150 325 145 310
             L150 295
             C155 280 150 265 145 250
             L150 235
             C155 220 150 205 140 195
             C130 185 115 180 100 180 Z"
          fill="#B22222" stroke="#8B0000" stroke-width="2"/>

    <!-- Open Coil Humbuckers (black with visible coils) -->
    <rect x="85" y="220" width="30" height="12" rx="6" fill="#1a1a1a"/>
    <circle cx="92" cy="226" r="3" fill="#2C2C2C"/>
    <circle cx="108" cy="226" r="3" fill="#2C2C2C"/>
    <rect x="85" y="280" width="30" height="12" rx="6" fill="#1a1a1a"/>
    <circle cx="92" cy="286" r="3" fill="#2C2C2C"/>
    <circle cx="108" cy="286" r="3" fill="#2C2C2C"/>

    <!-- Bridge -->
    <rect x="80" y="350" width="40" height="8" rx="4" fill="#C0C0C0"/>

    <!-- Control knobs -->
    <circle cx="75" cy="310" r="6" fill="#C0C0C0"/>
    <circle cx="125" cy="310" r="6" fill="#C0C0C0"/>
    <circle cx="75" cy="330" r="6" fill="#C0C0C0"/>
    <circle cx="125" cy="330" r="6" fill="#C0C0C0"/>

    <!-- Toggle switch -->
    <rect x="98" y="250" width="4" height="12" rx="2" fill="#2C2C2C"/>

    <!-- Strings -->
    <line x1="95" y1="60" x2="95" y2="350" stroke="#E8E8E8" stroke-width="1"/>
    <line x1="98" y1="60" x2="98" y2="350" stroke="#E8E8E8" stroke-width="1"/>
    <line x1="101" y1="60" x2="101" y2="350" stroke="#E8E8E8" stroke-width="1"/>
    <line x1="104" y1="60" x2="104" y2="350" stroke="#E8E8E8" stroke-width="1"/>
    <line x1="107" y1="60" x2="107" y2="350" stroke="#E8E8E8" stroke-width="1"/>
    <line x1="110" y1="60" x2="110" y2="350" stroke="#E8E8E8" stroke-width="1"/>
  </symbol>

  <!-- Epiphone SG Emily The Strange G-310 -->
  <symbol id="epiphone-sg-emily-strange" viewBox="0 0 200 500">
    <!-- Neck -->
    <rect x="90" y="50" width="20" height="130" fill="#8B4513"/>

    <!-- Headstock -->
    <path d="M85 50 L85 30 L115 30 L115 50" fill="#654321"/>

    <!-- Tuning pegs -->
    <circle cx="88" cy="35" r="2" fill="#C0C0C0"/>
    <circle cx="88" cy="42" r="2" fill="#C0C0C0"/>
    <circle cx="88" cy="49" r="2" fill="#C0C0C0"/>
    <circle cx="112" cy="35" r="2" fill="#C0C0C0"/>
    <circle cx="112" cy="42" r="2" fill="#C0C0C0"/>
    <circle cx="112" cy="49" r="2" fill="#C0C0C0"/>

    <!-- Fretboard -->
    <rect x="92" y="50" width="16" height="130" fill="#2F1B14"/>

    <!-- Frets -->
    <line x1="92" y1="65" x2="108" y2="65" stroke="#C0C0C0" stroke-width="0.5"/>
    <line x1="92" y1="80" x2="108" y2="80" stroke="#C0C0C0" stroke-width="0.5"/>
    <line x1="92" y1="95" x2="108" y2="95" stroke="#C0C0C0" stroke-width="0.5"/>
    <line x1="92" y1="110" x2="108" y2="110" stroke="#C0C0C0" stroke-width="0.5"/>
    <line x1="92" y1="125" x2="108" y2="125" stroke="#C0C0C0" stroke-width="0.5"/>

    <!-- SG Body Shape (Black base) -->
    <path d="M100 180
             C85 180 70 185 60 195
             C50 205 45 220 50 235
             L55 250
             C50 265 45 280 50 295
             L55 310
             C50 325 45 340 50 355
             L60 375
             C70 385 85 390 100 390
             C115 390 130 385 140 375
             L150 355
             C155 340 150 325 145 310
             L150 295
             C155 280 150 265 145 250
             L150 235
             C155 220 150 205 140 195
             C130 185 115 180 100 180 Z"
          fill="#1a1a1a" stroke="#000000" stroke-width="2"/>

    <!-- Emily The Strange Artwork (simplified representation) -->
    <!-- Red/black design elements -->
    <path d="M70 200 Q100 190 130 200 Q120 220 100 230 Q80 220 70 200" fill="#DC143C"/>
    <path d="M75 240 Q100 235 125 240 Q115 255 100 260 Q85 255 75 240" fill="#DC143C"/>

    <!-- Cat silhouette (Emily's signature) -->
    <ellipse cx="100" cy="320" rx="15" ry="8" fill="#000000"/>
    <circle cx="95" cy="315" r="3" fill="#000000"/>
    <circle cx="105" cy="315" r="3" fill="#000000"/>
    <path d="M90 312 L85 308 M110 312 L115 308" stroke="#000000" stroke-width="2"/>

    <!-- Decorative swirls -->
    <path d="M80 270 Q90 275 85 285 Q95 280 90 290" stroke="#DC143C" stroke-width="2" fill="none"/>
    <path d="M120 270 Q110 275 115 285 Q105 280 110 290" stroke="#DC143C" stroke-width="2" fill="none"/>

    <!-- Open Coil Humbuckers -->
    <rect x="85" y="220" width="30" height="12" rx="6" fill="#1a1a1a"/>
    <circle cx="92" cy="226" r="3" fill="#2C2C2C"/>
    <circle cx="108" cy="226" r="3" fill="#2C2C2C"/>
    <rect x="85" y="340" width="30" height="12" rx="6" fill="#1a1a1a"/>
    <circle cx="92" cy="346" r="3" fill="#2C2C2C"/>
    <circle cx="108" cy="346" r="3" fill="#2C2C2C"/>

    <!-- Bridge -->
    <rect x="95" y="360" width="10" height="8" fill="#C0C0C0"/>

    <!-- Tailpiece -->
    <rect x="93" y="370" width="14" height="4" fill="#C0C0C0"/>

    <!-- Control knobs -->
    <circle cx="120" cy="300" r="4" fill="#1a1a1a"/>
    <circle cx="120" cy="320" r="4" fill="#1a1a1a"/>

    <!-- Toggle switch -->
    <rect x="75" y="250" width="6" height="3" rx="1.5" fill="#1a1a1a"/>
  </symbol>

  <!-- Gibson Flying V Standard -->
  <symbol id="gibson-flying-v-standard" viewBox="0 0 200 500">
    <!-- Headstock -->
    <rect x="85" y="20" width="30" height="40" fill="#8B4513" stroke="#654321" stroke-width="2"/>
    <!-- Gibson logo area -->
    <rect x="90" y="30" width="20" height="8" fill="#FFD700"/>

    <!-- Tuning pegs -->
    <circle cx="75" cy="35" r="4" fill="#FFD700"/>
    <circle cx="75" cy="50" r="4" fill="#FFD700"/>
    <circle cx="75" cy="65" r="4" fill="#FFD700"/>
    <circle cx="125" cy="35" r="4" fill="#FFD700"/>
    <circle cx="125" cy="50" r="4" fill="#FFD700"/>
    <circle cx="125" cy="65" r="4" fill="#FFD700"/>

    <!-- Neck -->
    <rect x="90" y="60" width="20" height="120" fill="#8B4513"/>
    <!-- Fretboard -->
    <rect x="92" y="60" width="16" height="120" fill="#654321"/>

    <!-- Frets -->
    <line x1="92" y1="75" x2="108" y2="75" stroke="#C0C0C0" stroke-width="1"/>
    <line x1="92" y1="90" x2="108" y2="90" stroke="#C0C0C0" stroke-width="1"/>
    <line x1="92" y1="105" x2="108" y2="105" stroke="#C0C0C0" stroke-width="1"/>
    <line x1="92" y1="120" x2="108" y2="120" stroke="#C0C0C0" stroke-width="1"/>
    <line x1="92" y1="135" x2="108" y2="135" stroke="#C0C0C0" stroke-width="1"/>
    <line x1="92" y1="150" x2="108" y2="150" stroke="#C0C0C0" stroke-width="1"/>

    <!-- Flying V Body Shape (Natural Mahogany) -->
    <path d="M100 180
             L60 220
             L40 280
             L50 340
             L70 380
             L100 400
             L130 380
             L150 340
             L160 280
             L140 220
             Z"
          fill="#8B4513" stroke="#654321" stroke-width="2"/>

    <!-- Humbuckers -->
    <rect x="85" y="240" width="30" height="12" rx="6" fill="#2C2C2C"/>
    <rect x="87" y="242" width="26" height="8" fill="#1a1a1a"/>
    <rect x="85" y="320" width="30" height="12" rx="6" fill="#2C2C2C"/>
    <rect x="87" y="322" width="26" height="8" fill="#1a1a1a"/>

    <!-- Bridge -->
    <rect x="95" y="350" width="10" height="8" fill="#C0C0C0"/>

    <!-- Tailpiece -->
    <rect x="93" y="360" width="14" height="4" fill="#C0C0C0"/>

    <!-- Control knobs -->
    <circle cx="120" cy="280" r="4" fill="#1a1a1a"/>
    <circle cx="120" cy="300" r="4" fill="#1a1a1a"/>

    <!-- Toggle switch -->
    <rect x="75" y="260" width="6" height="3" rx="1.5" fill="#1a1a1a"/>
  </symbol>

  <!-- Gibson Flying V Prophecy -->
  <symbol id="gibson-flying-v-prophecy" viewBox="0 0 200 500">
    <!-- Headstock -->
    <rect x="85" y="20" width="30" height="40" fill="#1a1a1a" stroke="#000" stroke-width="2"/>
    <!-- Gibson logo area -->
    <rect x="90" y="30" width="20" height="8" fill="#FFD700"/>

    <!-- Tuning pegs (locking) -->
    <circle cx="75" cy="35" r="4" fill="#C0C0C0"/>
    <circle cx="75" cy="50" r="4" fill="#C0C0C0"/>
    <circle cx="75" cy="65" r="4" fill="#C0C0C0"/>
    <circle cx="125" cy="35" r="4" fill="#C0C0C0"/>
    <circle cx="125" cy="50" r="4" fill="#C0C0C0"/>
    <circle cx="125" cy="65" r="4" fill="#C0C0C0"/>

    <!-- Neck -->
    <rect x="90" y="60" width="20" height="120" fill="#1a1a1a"/>
    <!-- Fretboard -->
    <rect x="92" y="60" width="16" height="120" fill="#000"/>

    <!-- Frets -->
    <line x1="92" y1="75" x2="108" y2="75" stroke="#C0C0C0" stroke-width="1"/>
    <line x1="92" y1="90" x2="108" y2="90" stroke="#C0C0C0" stroke-width="1"/>
    <line x1="92" y1="105" x2="108" y2="105" stroke="#C0C0C0" stroke-width="1"/>
    <line x1="92" y1="120" x2="108" y2="120" stroke="#C0C0C0" stroke-width="1"/>
    <line x1="92" y1="135" x2="108" y2="135" stroke="#C0C0C0" stroke-width="1"/>
    <line x1="92" y1="150" x2="108" y2="150" stroke="#C0C0C0" stroke-width="1"/>

    <!-- Flying V Body Shape (Ebony Black) -->
    <path d="M100 180
             L60 220
             L40 280
             L50 340
             L70 380
             L100 400
             L130 380
             L150 340
             L160 280
             L140 220
             Z"
          fill="#1a1a1a" stroke="#000" stroke-width="2"/>

    <!-- EMG Active Humbuckers -->
    <rect x="85" y="240" width="30" height="12" rx="6" fill="#000"/>
    <rect x="87" y="242" width="26" height="8" fill="#FFD700"/>
    <text x="100" y="248" text-anchor="middle" font-size="6" fill="#000">EMG</text>
    <rect x="85" y="320" width="30" height="12" rx="6" fill="#000"/>
    <rect x="87" y="322" width="26" height="8" fill="#FFD700"/>
    <text x="100" y="328" text-anchor="middle" font-size="6" fill="#000">EMG</text>

    <!-- Floyd Rose Bridge -->
    <rect x="90" y="350" width="20" height="12" fill="#C0C0C0"/>
    <rect x="92" y="352" width="16" height="8" fill="#A0A0A0"/>

    <!-- Control knobs -->
    <circle cx="120" cy="280" r="4" fill="#000"/>
    <circle cx="120" cy="300" r="4" fill="#000"/>

    <!-- Toggle switch -->
    <rect x="75" y="260" width="6" height="3" rx="1.5" fill="#000"/>
  </symbol>

  <!-- Gibson Flying V Faded -->
  <symbol id="gibson-flying-v-faded" viewBox="0 0 200 500">
    <!-- Headstock -->
    <rect x="85" y="20" width="30" height="40" fill="#8B4513" stroke="#654321" stroke-width="2"/>
    <!-- Gibson logo area -->
    <rect x="90" y="30" width="20" height="8" fill="#FFD700"/>

    <!-- Tuning pegs -->
    <circle cx="75" cy="35" r="4" fill="#FFD700"/>
    <circle cx="75" cy="50" r="4" fill="#FFD700"/>
    <circle cx="75" cy="65" r="4" fill="#FFD700"/>
    <circle cx="125" cy="35" r="4" fill="#FFD700"/>
    <circle cx="125" cy="50" r="4" fill="#FFD700"/>
    <circle cx="125" cy="65" r="4" fill="#FFD700"/>

    <!-- Neck -->
    <rect x="90" y="60" width="20" height="120" fill="#8B4513"/>
    <!-- Fretboard -->
    <rect x="92" y="60" width="16" height="120" fill="#654321"/>

    <!-- Frets -->
    <line x1="92" y1="75" x2="108" y2="75" stroke="#C0C0C0" stroke-width="1"/>
    <line x1="92" y1="90" x2="108" y2="90" stroke="#C0C0C0" stroke-width="1"/>
    <line x1="92" y1="105" x2="108" y2="105" stroke="#C0C0C0" stroke-width="1"/>
    <line x1="92" y1="120" x2="108" y2="120" stroke="#C0C0C0" stroke-width="1"/>
    <line x1="92" y1="135" x2="108" y2="135" stroke="#C0C0C0" stroke-width="1"/>
    <line x1="92" y1="150" x2="108" y2="150" stroke="#C0C0C0" stroke-width="1"/>

    <!-- Flying V Body Shape (Worn Cherry) -->
    <path d="M100 180
             L60 220
             L40 280
             L50 340
             L70 380
             L100 400
             L130 380
             L150 340
             L160 280
             L140 220
             Z"
          fill="#A0522D" stroke="#8B4513" stroke-width="2"/>

    <!-- Worn/faded effect overlay -->
    <path d="M100 180
             L60 220
             L40 280
             L50 340
             L70 380
             L100 400
             L130 380
             L150 340
             L160 280
             L140 220
             Z"
          fill="url(#fadeGradient)" opacity="0.3"/>

    <!-- Humbuckers -->
    <rect x="85" y="240" width="30" height="12" rx="6" fill="#2C2C2C"/>
    <rect x="87" y="242" width="26" height="8" fill="#1a1a1a"/>
    <rect x="85" y="320" width="30" height="12" rx="6" fill="#2C2C2C"/>
    <rect x="87" y="322" width="26" height="8" fill="#1a1a1a"/>

    <!-- Bridge -->
    <rect x="95" y="350" width="10" height="8" fill="#C0C0C0"/>

    <!-- Tailpiece -->
    <rect x="93" y="360" width="14" height="4" fill="#C0C0C0"/>

    <!-- Control knobs -->
    <circle cx="120" cy="280" r="4" fill="#1a1a1a"/>
    <circle cx="120" cy="300" r="4" fill="#1a1a1a"/>

    <!-- Toggle switch -->
    <rect x="75" y="260" width="6" height="3" rx="1.5" fill="#1a1a1a"/>

    <!-- Define gradient for faded effect -->
    <defs>
      <linearGradient id="fadeGradient" x1="0%" y1="0%" x2="100%" y2="100%">
        <stop offset="0%" style="stop-color:#8B4513;stop-opacity:0.5" />
        <stop offset="50%" style="stop-color:#654321;stop-opacity:0.3" />
        <stop offset="100%" style="stop-color:#8B4513;stop-opacity:0.1" />
      </linearGradient>
    </defs>
  </symbol>

  <!-- Harley Benton Victory-BK Classic Series -->
  <symbol id="harley-benton-victory-bk" viewBox="0 0 200 500">
    <!-- Headstock -->
    <rect x="85" y="20" width="30" height="40" fill="#1a1a1a" stroke="#000" stroke-width="2"/>
    <!-- Harley Benton logo area -->
    <rect x="90" y="30" width="20" height="8" fill="#C0C0C0"/>

    <!-- Tuning pegs -->
    <circle cx="75" cy="35" r="4" fill="#C0C0C0"/>
    <circle cx="75" cy="50" r="4" fill="#C0C0C0"/>
    <circle cx="75" cy="65" r="4" fill="#C0C0C0"/>
    <circle cx="125" cy="35" r="4" fill="#C0C0C0"/>
    <circle cx="125" cy="50" r="4" fill="#C0C0C0"/>
    <circle cx="125" cy="65" r="4" fill="#C0C0C0"/>

    <!-- Neck -->
    <rect x="90" y="60" width="20" height="120" fill="#F5DEB3"/>
    <!-- Fretboard -->
    <rect x="92" y="60" width="16" height="120" fill="#654321"/>

    <!-- Frets -->
    <line x1="92" y1="75" x2="108" y2="75" stroke="#C0C0C0" stroke-width="1"/>
    <line x1="92" y1="90" x2="108" y2="90" stroke="#C0C0C0" stroke-width="1"/>
    <line x1="92" y1="105" x2="108" y2="105" stroke="#C0C0C0" stroke-width="1"/>
    <line x1="92" y1="120" x2="108" y2="120" stroke="#C0C0C0" stroke-width="1"/>
    <line x1="92" y1="135" x2="108" y2="135" stroke="#C0C0C0" stroke-width="1"/>
    <line x1="92" y1="150" x2="108" y2="150" stroke="#C0C0C0" stroke-width="1"/>

    <!-- Flying V Body Shape (Black) -->
    <path d="M100 180
             L60 220
             L40 280
             L50 340
             L70 380
             L100 400
             L130 380
             L150 340
             L160 280
             L140 220
             Z"
          fill="#1a1a1a" stroke="#000" stroke-width="2"/>

    <!-- White pickguard accent -->
    <path d="M85 200
             L115 200
             L120 240
             L110 280
             L90 280
             L80 240
             Z"
          fill="#FFFFFF" stroke="#E0E0E0" stroke-width="1"/>

    <!-- Dual Humbuckers -->
    <rect x="85" y="240" width="30" height="12" rx="6" fill="#2C2C2C"/>
    <rect x="87" y="242" width="26" height="8" fill="#1a1a1a"/>
    <rect x="85" y="320" width="30" height="12" rx="6" fill="#2C2C2C"/>
    <rect x="87" y="322" width="26" height="8" fill="#1a1a1a"/>

    <!-- Bridge -->
    <rect x="95" y="350" width="10" height="8" fill="#C0C0C0"/>

    <!-- Tailpiece -->
    <rect x="93" y="360" width="14" height="4" fill="#C0C0C0"/>

    <!-- Control knobs -->
    <circle cx="105" cy="290" r="3" fill="#1a1a1a"/>
    <circle cx="105" cy="305" r="3" fill="#1a1a1a"/>

    <!-- Toggle switch -->
    <rect x="90" y="270" width="4" height="2" rx="1" fill="#1a1a1a"/>

    <!-- Star inlays (simple dots) -->
    <circle cx="100" cy="95" r="2" fill="#FFFFFF"/>
    <circle cx="100" cy="125" r="2" fill="#FFFFFF"/>
  </symbol>

</svg>
