<!-- Guitar Model Images SVG Sprite -->
<svg xmlns="http://www.w3.org/2000/svg" style="display: none;">
  
  <!-- Fender Player Stratocaster -->
  <symbol id="fender-player-strat" viewBox="0 0 200 500">
    <!-- Headstock -->
    <rect x="85" y="20" width="30" height="40" fill="#F5DEB3" stroke="#DEB887" stroke-width="2"/>
    <!-- Tuning pegs -->
    <circle cx="75" cy="35" r="4" fill="#C0C0C0"/>
    <circle cx="75" cy="45" r="4" fill="#C0C0C0"/>
    <circle cx="75" cy="55" r="4" fill="#C0C0C0"/>
    <circle cx="125" cy="35" r="4" fill="#C0C0C0"/>
    <circle cx="125" cy="45" r="4" fill="#C0C0C0"/>
    <circle cx="125" cy="55" r="4" fill="#C0C0C0"/>
    
    <!-- Neck -->
    <rect x="90" y="60" width="20" height="120" fill="#F5DEB3"/>
    <!-- Fretboard -->
    <rect x="92" y="60" width="16" height="120" fill="#8B4513"/>
    
    <!-- Frets -->
    <line x1="92" y1="75" x2="108" y2="75" stroke="#C0C0C0" stroke-width="1"/>
    <line x1="92" y1="90" x2="108" y2="90" stroke="#C0C0C0" stroke-width="1"/>
    <line x1="92" y1="105" x2="108" y2="105" stroke="#C0C0C0" stroke-width="1"/>
    <line x1="92" y1="120" x2="108" y2="120" stroke="#C0C0C0" stroke-width="1"/>
    <line x1="92" y1="135" x2="108" y2="135" stroke="#C0C0C0" stroke-width="1"/>
    <line x1="92" y1="150" x2="108" y2="150" stroke="#C0C0C0" stroke-width="1"/>
    <line x1="92" y1="165" x2="108" y2="165" stroke="#C0C0C0" stroke-width="1"/>
    
    <!-- Stratocaster Body -->
    <path d="M100 180
             C75 180 50 190 40 210
             C30 230 35 250 45 270
             L50 300
             C45 320 50 340 60 360
             L70 390
             C80 410 100 420 100 420
             C100 420 120 410 130 390
             L140 360
             C150 340 155 320 150 300
             L155 270
             C165 250 170 230 160 210
             C150 190 125 180 100 180 Z" 
          fill="#FF6B35" stroke="#E55A2B" stroke-width="2"/>
    
    <!-- Pickguard -->
    <path d="M55 200 C50 200 45 205 45 210 L45 350 C45 355 50 360 55 360 L95 360 C100 360 105 355 105 350 L105 210 C105 205 100 200 95 200 Z" 
          fill="#F8F9FA" opacity="0.9"/>
    
    <!-- Pickups -->
    <rect x="60" y="220" width="30" height="8" rx="4" fill="#1a1a1a"/>
    <rect x="60" y="260" width="30" height="8" rx="4" fill="#1a1a1a"/>
    <rect x="60" y="300" width="30" height="8" rx="4" fill="#1a1a1a"/>
    
    <!-- Bridge -->
    <rect x="80" y="380" width="40" height="12" rx="2" fill="#C0C0C0"/>
    
    <!-- Strings -->
    <line x1="95" y1="60" x2="95" y2="420" stroke="#E8E8E8" stroke-width="1"/>
    <line x1="98" y1="60" x2="98" y2="420" stroke="#E8E8E8" stroke-width="1"/>
    <line x1="101" y1="60" x2="101" y2="420" stroke="#E8E8E8" stroke-width="1"/>
    <line x1="104" y1="60" x2="104" y2="420" stroke="#E8E8E8" stroke-width="1"/>
    <line x1="107" y1="60" x2="107" y2="420" stroke="#E8E8E8" stroke-width="1"/>
    <line x1="110" y1="60" x2="110" y2="420" stroke="#E8E8E8" stroke-width="1"/>
  </symbol>

  <!-- Gibson Les Paul Standard -->
  <symbol id="gibson-les-paul-standard" viewBox="0 0 200 500">
    <!-- Headstock -->
    <rect x="85" y="20" width="30" height="40" fill="#8B4513" stroke="#654321" stroke-width="2"/>
    <!-- Gibson logo area -->
    <rect x="90" y="30" width="20" height="8" fill="#FFD700"/>
    
    <!-- Tuning pegs -->
    <circle cx="75" cy="35" r="4" fill="#FFD700"/>
    <circle cx="75" cy="50" r="4" fill="#FFD700"/>
    <circle cx="75" cy="65" r="4" fill="#FFD700"/>
    <circle cx="125" cy="35" r="4" fill="#FFD700"/>
    <circle cx="125" cy="50" r="4" fill="#FFD700"/>
    <circle cx="125" cy="65" r="4" fill="#FFD700"/>
    
    <!-- Neck -->
    <rect x="90" y="60" width="20" height="120" fill="#8B4513"/>
    <!-- Fretboard -->
    <rect x="92" y="60" width="16" height="120" fill="#654321"/>
    
    <!-- Frets -->
    <line x1="92" y1="75" x2="108" y2="75" stroke="#C0C0C0" stroke-width="1"/>
    <line x1="92" y1="90" x2="108" y2="90" stroke="#C0C0C0" stroke-width="1"/>
    <line x1="92" y1="105" x2="108" y2="105" stroke="#C0C0C0" stroke-width="1"/>
    <line x1="92" y1="120" x2="108" y2="120" stroke="#C0C0C0" stroke-width="1"/>
    <line x1="92" y1="135" x2="108" y2="135" stroke="#C0C0C0" stroke-width="1"/>
    <line x1="92" y1="150" x2="108" y2="150" stroke="#C0C0C0" stroke-width="1"/>
    
    <!-- Les Paul Body -->
    <path d="M100 180
             C70 180 40 200 40 240
             L40 380
             C40 420 70 440 100 440
             C130 440 160 420 160 380
             L160 240
             C160 200 130 180 100 180 Z" 
          fill="#8B0000" stroke="#654321" stroke-width="2"/>
    
    <!-- Maple cap -->
    <path d="M100 180
             C75 180 50 195 50 220
             L50 300
             C50 325 75 340 100 340
             C125 340 150 325 150 300
             L150 220
             C150 195 125 180 100 180 Z" 
          fill="#DEB887" opacity="0.3"/>
    
    <!-- Single cutaway -->
    <path d="M40 260 C30 270 30 290 40 300" fill="none" stroke="#654321" stroke-width="2"/>
    
    <!-- Humbuckers -->
    <rect x="75" y="240" width="50" height="20" rx="10" fill="#1a1a1a"/>
    <rect x="75" y="320" width="50" height="20" rx="10" fill="#1a1a1a"/>
    
    <!-- Bridge -->
    <rect x="70" y="380" width="60" height="15" rx="3" fill="#FFD700"/>
    
    <!-- Strings -->
    <line x1="95" y1="60" x2="95" y2="440" stroke="#E8E8E8" stroke-width="1"/>
    <line x1="98" y1="60" x2="98" y2="440" stroke="#E8E8E8" stroke-width="1"/>
    <line x1="101" y1="60" x2="101" y2="440" stroke="#E8E8E8" stroke-width="1"/>
    <line x1="104" y1="60" x2="104" y2="440" stroke="#E8E8E8" stroke-width="1"/>
    <line x1="107" y1="60" x2="107" y2="440" stroke="#E8E8E8" stroke-width="1"/>
    <line x1="110" y1="60" x2="110" y2="440" stroke="#E8E8E8" stroke-width="1"/>
  </symbol>

  <!-- Fender Telecaster -->
  <symbol id="fender-telecaster" viewBox="0 0 200 500">
    <!-- Headstock -->
    <rect x="85" y="20" width="30" height="40" fill="#F5DEB3" stroke="#DEB887" stroke-width="2"/>
    
    <!-- Tuning pegs -->
    <circle cx="75" cy="35" r="4" fill="#C0C0C0"/>
    <circle cx="75" cy="45" r="4" fill="#C0C0C0"/>
    <circle cx="75" cy="55" r="4" fill="#C0C0C0"/>
    <circle cx="125" cy="35" r="4" fill="#C0C0C0"/>
    <circle cx="125" cy="45" r="4" fill="#C0C0C0"/>
    <circle cx="125" cy="55" r="4" fill="#C0C0C0"/>
    
    <!-- Neck -->
    <rect x="90" y="60" width="20" height="120" fill="#F5DEB3"/>
    <!-- Fretboard -->
    <rect x="92" y="60" width="16" height="120" fill="#F5DEB3"/>
    
    <!-- Frets -->
    <line x1="92" y1="75" x2="108" y2="75" stroke="#C0C0C0" stroke-width="1"/>
    <line x1="92" y1="90" x2="108" y2="90" stroke="#C0C0C0" stroke-width="1"/>
    <line x1="92" y1="105" x2="108" y2="105" stroke="#C0C0C0" stroke-width="1"/>
    <line x1="92" y1="120" x2="108" y2="120" stroke="#C0C0C0" stroke-width="1"/>
    <line x1="92" y1="135" x2="108" y2="135" stroke="#C0C0C0" stroke-width="1"/>
    <line x1="92" y1="150" x2="108" y2="150" stroke="#C0C0C0" stroke-width="1"/>
    
    <!-- Telecaster Body -->
    <path d="M100 180
             C80 180 55 190 55 210
             L55 380
             C55 400 80 420 100 420
             C120 420 145 400 145 380
             L145 210
             C145 190 120 180 100 180 Z" 
          fill="#FFD700" stroke="#DAA520" stroke-width="2"/>
    
    <!-- Single cutaway -->
    <path d="M55 240 C45 250 45 270 55 280" fill="none" stroke="#DAA520" stroke-width="2"/>
    
    <!-- Pickups -->
    <rect x="75" y="220" width="35" height="12" rx="6" fill="#1a1a1a"/>
    <rect x="75" y="320" width="35" height="12" rx="6" fill="#1a1a1a"/>
    
    <!-- Bridge -->
    <rect x="75" y="380" width="50" height="15" rx="3" fill="#C0C0C0"/>
    
    <!-- Strings -->
    <line x1="95" y1="60" x2="95" y2="420" stroke="#E8E8E8" stroke-width="1"/>
    <line x1="98" y1="60" x2="98" y2="420" stroke="#E8E8E8" stroke-width="1"/>
    <line x1="101" y1="60" x2="101" y2="420" stroke="#E8E8E8" stroke-width="1"/>
    <line x1="104" y1="60" x2="104" y2="420" stroke="#E8E8E8" stroke-width="1"/>
    <line x1="107" y1="60" x2="107" y2="420" stroke="#E8E8E8" stroke-width="1"/>
    <line x1="110" y1="60" x2="110" y2="420" stroke="#E8E8E8" stroke-width="1"/>
  </symbol>

  <!-- Martin D-28 Dreadnought -->
  <symbol id="martin-d28" viewBox="0 0 200 500">
    <!-- Headstock -->
    <rect x="80" y="20" width="40" height="40" fill="#8B4513" stroke="#654321" stroke-width="2"/>
    <!-- Martin logo -->
    <rect x="90" y="30" width="20" height="8" fill="#FFD700"/>
    
    <!-- Tuning pegs -->
    <circle cx="70" cy="35" r="4" fill="#C0C0C0"/>
    <circle cx="70" cy="50" r="4" fill="#C0C0C0"/>
    <circle cx="70" cy="65" r="4" fill="#C0C0C0"/>
    <circle cx="130" cy="35" r="4" fill="#C0C0C0"/>
    <circle cx="130" cy="50" r="4" fill="#C0C0C0"/>
    <circle cx="130" cy="65" r="4" fill="#C0C0C0"/>
    
    <!-- Neck -->
    <rect x="85" y="60" width="30" height="120" fill="#8B4513"/>
    <!-- Fretboard -->
    <rect x="88" y="60" width="24" height="120" fill="#654321"/>
    
    <!-- Frets -->
    <line x1="88" y1="75" x2="112" y2="75" stroke="#C0C0C0" stroke-width="1"/>
    <line x1="88" y1="90" x2="112" y2="90" stroke="#C0C0C0" stroke-width="1"/>
    <line x1="88" y1="105" x2="112" y2="105" stroke="#C0C0C0" stroke-width="1"/>
    <line x1="88" y1="120" x2="112" y2="120" stroke="#C0C0C0" stroke-width="1"/>
    <line x1="88" y1="135" x2="112" y2="135" stroke="#C0C0C0" stroke-width="1"/>
    <line x1="88" y1="150" x2="112" y2="150" stroke="#C0C0C0" stroke-width="1"/>
    
    <!-- Dreadnought Body -->
    <path d="M100 180
             C60 180 30 200 30 240
             L30 380
             C30 420 60 450 100 450
             C140 450 170 420 170 380
             L170 240
             C170 200 140 180 100 180 Z" 
          fill="#DEB887" stroke="#CD853F" stroke-width="2"/>
    
    <!-- Sound hole -->
    <circle cx="100" cy="260" r="25" fill="#1a1a1a"/>
    <!-- Rosette -->
    <circle cx="100" cy="260" r="30" fill="none" stroke="#8B4513" stroke-width="2"/>
    <circle cx="100" cy="260" r="35" fill="none" stroke="#654321" stroke-width="1"/>
    
    <!-- Bridge -->
    <rect x="75" y="380" width="50" height="8" rx="4" fill="#654321"/>
    
    <!-- Strings -->
    <line x1="95" y1="60" x2="95" y2="450" stroke="#E8E8E8" stroke-width="1"/>
    <line x1="98" y1="60" x2="98" y2="450" stroke="#E8E8E8" stroke-width="1"/>
    <line x1="101" y1="60" x2="101" y2="450" stroke="#E8E8E8" stroke-width="1"/>
    <line x1="104" y1="60" x2="104" y2="450" stroke="#E8E8E8" stroke-width="1"/>
    <line x1="107" y1="60" x2="107" y2="450" stroke="#E8E8E8" stroke-width="1"/>
    <line x1="110" y1="60" x2="110" y2="450" stroke="#E8E8E8" stroke-width="1"/>
  </symbol>

  <!-- Gibson J-45 -->
  <symbol id="gibson-j45" viewBox="0 0 200 500">
    <!-- Headstock -->
    <rect x="80" y="20" width="40" height="40" fill="#8B4513" stroke="#654321" stroke-width="2"/>
    <!-- Gibson logo -->
    <rect x="90" y="30" width="20" height="8" fill="#FFD700"/>
    
    <!-- Tuning pegs -->
    <circle cx="70" cy="35" r="4" fill="#FFD700"/>
    <circle cx="70" cy="50" r="4" fill="#FFD700"/>
    <circle cx="70" cy="65" r="4" fill="#FFD700"/>
    <circle cx="130" cy="35" r="4" fill="#FFD700"/>
    <circle cx="130" cy="50" r="4" fill="#FFD700"/>
    <circle cx="130" cy="65" r="4" fill="#FFD700"/>
    
    <!-- Neck -->
    <rect x="85" y="60" width="30" height="120" fill="#8B4513"/>
    <!-- Fretboard -->
    <rect x="88" y="60" width="24" height="120" fill="#654321"/>
    
    <!-- Frets -->
    <line x1="88" y1="75" x2="112" y2="75" stroke="#C0C0C0" stroke-width="1"/>
    <line x1="88" y1="90" x2="112" y2="90" stroke="#C0C0C0" stroke-width="1"/>
    <line x1="88" y1="105" x2="112" y2="105" stroke="#C0C0C0" stroke-width="1"/>
    <line x1="88" y1="120" x2="112" y2="120" stroke="#C0C0C0" stroke-width="1"/>
    <line x1="88" y1="135" x2="112" y2="135" stroke="#C0C0C0" stroke-width="1"/>
    <line x1="88" y1="150" x2="112" y2="150" stroke="#C0C0C0" stroke-width="1"/>
    
    <!-- J-45 Body -->
    <path d="M100 180
             C65 180 35 200 35 240
             L35 375
             C35 415 65 445 100 445
             C135 445 165 415 165 375
             L165 240
             C165 200 135 180 100 180 Z" 
          fill="#CD853F" stroke="#8B4513" stroke-width="2"/>
    
    <!-- Sound hole -->
    <circle cx="100" cy="260" r="22" fill="#1a1a1a"/>
    <!-- Rosette -->
    <circle cx="100" cy="260" r="27" fill="none" stroke="#654321" stroke-width="2"/>
    <circle cx="100" cy="260" r="32" fill="none" stroke="#8B4513" stroke-width="1"/>
    
    <!-- Bridge -->
    <rect x="75" y="375" width="50" height="8" rx="4" fill="#654321"/>
    
    <!-- Strings -->
    <line x1="95" y1="60" x2="95" y2="445" stroke="#E8E8E8" stroke-width="1"/>
    <line x1="98" y1="60" x2="98" y2="445" stroke="#E8E8E8" stroke-width="1"/>
    <line x1="101" y1="60" x2="101" y2="445" stroke="#E8E8E8" stroke-width="1"/>
    <line x1="104" y1="60" x2="104" y2="445" stroke="#E8E8E8" stroke-width="1"/>
    <line x1="107" y1="60" x2="107" y2="445" stroke="#E8E8E8" stroke-width="1"/>
    <line x1="110" y1="60" x2="110" y2="445" stroke="#E8E8E8" stroke-width="1"/>
  </symbol>

</svg>
