<svg width="300" height="800" viewBox="0 0 300 800" xmlns="http://www.w3.org/2000/svg">
  <!-- Telecaster Body - Butterscotch Blonde -->
  <g id="body">
    <!-- Main body shape -->
    <path d="M80 200 Q75 195 75 190 L75 180 Q75 175 80 175 L220 175 Q225 175 225 180 L225 350 Q225 355 220 355 L200 355 L200 380 Q200 385 195 385 L105 385 Q100 385 100 380 L100 355 L80 355 Q75 355 75 350 L75 200 Z" 
          fill="#E6B800" stroke="#D4A017" stroke-width="2"/>
    
    <!-- Body cutaway -->
    <path d="M225 180 L225 220 Q240 225 250 240 Q255 250 250 260 Q240 275 225 280 L225 350" 
          fill="#E6B800" stroke="#D4A017" stroke-width="2"/>
    
    <!-- Pickguard (black) -->
    <path d="M90 190 Q85 190 85 195 L85 320 Q85 325 90 325 L160 325 Q165 325 165 320 L165 195 Q165 190 160 190 Z" 
          fill="#1a1a1a" stroke="#000" stroke-width="1"/>
    
    <!-- Bridge pickup -->
    <rect x="110" y="280" width="30" height="15" fill="#2c2c2c" stroke="#000" stroke-width="1"/>
    <rect x="112" y="282" width="26" height="11" fill="#4a4a4a"/>
    
    <!-- Neck pickup -->
    <rect x="110" y="220" width="30" height="15" fill="#2c2c2c" stroke="#000" stroke-width="1"/>
    <rect x="112" y="222" width="26" height="11" fill="#4a4a4a"/>
    
    <!-- Control knobs -->
    <circle cx="130" cy="310" r="8" fill="#c0c0c0" stroke="#999" stroke-width="1"/>
    <circle cx="130" cy="310" r="3" fill="#666"/>
    <circle cx="155" cy="300" r="8" fill="#c0c0c0" stroke="#999" stroke-width="1"/>
    <circle cx="155" cy="300" r="3" fill="#666"/>
    
    <!-- Pickup selector switch -->
    <rect x="145" y="250" width="8" height="15" fill="#2c2c2c" stroke="#000" stroke-width="1"/>
    <rect x="147" y="252" width="4" height="11" fill="#c0c0c0"/>
    
    <!-- Bridge -->
    <rect x="95" y="340" width="80" height="12" fill="#c0c0c0" stroke="#999" stroke-width="1"/>
    <rect x="100" y="342" width="70" height="8" fill="#e0e0e0"/>
    
    <!-- String saddles -->
    <rect x="102" y="344" width="3" height="4" fill="#999"/>
    <rect x="108" y="344" width="3" height="4" fill="#999"/>
    <rect x="114" y="344" width="3" height="4" fill="#999"/>
    <rect x="120" y="344" width="3" height="4" fill="#999"/>
    <rect x="126" y="344" width="3" height="4" fill="#999"/>
    <rect x="132" y="344" width="3" height="4" fill="#999"/>
  </g>
  
  <!-- Neck -->
  <g id="neck">
    <!-- Neck wood (maple) -->
    <rect x="135" y="50" width="30" height="150" fill="#F5DEB3" stroke="#DEB887" stroke-width="2"/>
    
    <!-- Fretboard -->
    <rect x="138" y="50" width="24" height="150" fill="#F5DEB3" stroke="#DEB887" stroke-width="1"/>
    
    <!-- Frets -->
    <line x1="138" y1="65" x2="162" y2="65" stroke="#c0c0c0" stroke-width="1"/>
    <line x1="138" y1="80" x2="162" y2="80" stroke="#c0c0c0" stroke-width="1"/>
    <line x1="138" y1="95" x2="162" y2="95" stroke="#c0c0c0" stroke-width="1"/>
    <line x1="138" y1="110" x2="162" y2="110" stroke="#c0c0c0" stroke-width="1"/>
    <line x1="138" y1="125" x2="162" y2="125" stroke="#c0c0c0" stroke-width="1"/>
    <line x1="138" y1="140" x2="162" y2="140" stroke="#c0c0c0" stroke-width="1"/>
    <line x1="138" y1="155" x2="162" y2="155" stroke="#c0c0c0" stroke-width="1"/>
    <line x1="138" y1="170" x2="162" y2="170" stroke="#c0c0c0" stroke-width="1"/>
    <line x1="138" y1="185" x2="162" y2="185" stroke="#c0c0c0" stroke-width="1"/>
    
    <!-- Position markers -->
    <circle cx="150" y="87.5" r="2" fill="#2c2c2c"/>
    <circle cx="150" y="117.5" r="2" fill="#2c2c2c"/>
    <circle cx="150" y="147.5" r="2" fill="#2c2c2c"/>
    
    <!-- Strings -->
    <line x1="140" y1="50" x2="140" y2="350" stroke="#c0c0c0" stroke-width="0.5"/>
    <line x1="144" y1="50" x2="144" y2="350" stroke="#c0c0c0" stroke-width="0.5"/>
    <line x1="148" y1="50" x2="148" y2="350" stroke="#c0c0c0" stroke-width="0.5"/>
    <line x1="152" y1="50" x2="152" y2="350" stroke="#c0c0c0" stroke-width="0.5"/>
    <line x1="156" y1="50" x2="156" y2="350" stroke="#c0c0c0" stroke-width="0.5"/>
    <line x1="160" y1="50" x2="160" y2="350" stroke="#c0c0c0" stroke-width="0.5"/>
  </g>
  
  <!-- Headstock -->
  <g id="headstock">
    <!-- Headstock shape -->
    <path d="M135 20 Q130 15 130 10 Q130 5 135 5 L165 5 Q170 5 170 10 Q170 15 165 20 L165 50 L135 50 Z" 
          fill="#F5DEB3" stroke="#DEB887" stroke-width="2"/>
    
    <!-- Squier logo area -->
    <rect x="140" y="15" width="20" height="8" fill="#1a1a1a"/>
    <text x="150" y="21" text-anchor="middle" font-family="Arial, sans-serif" font-size="6" fill="white">Squier</text>
    
    <!-- Tuning pegs -->
    <circle cx="142" cy="30" r="3" fill="#c0c0c0" stroke="#999" stroke-width="1"/>
    <circle cx="142" cy="35" r="3" fill="#c0c0c0" stroke="#999" stroke-width="1"/>
    <circle cx="142" cy="40" r="3" fill="#c0c0c0" stroke="#999" stroke-width="1"/>
    <circle cx="158" cy="30" r="3" fill="#c0c0c0" stroke="#999" stroke-width="1"/>
    <circle cx="158" cy="35" r="3" fill="#c0c0c0" stroke="#999" stroke-width="1"/>
    <circle cx="158" cy="40" r="3" fill="#c0c0c0" stroke="#999" stroke-width="1"/>
    
    <!-- Tuning peg posts -->
    <circle cx="142" cy="30" r="1" fill="#666"/>
    <circle cx="142" cy="35" r="1" fill="#666"/>
    <circle cx="142" cy="40" r="1" fill="#666"/>
    <circle cx="158" cy="30" r="1" fill="#666"/>
    <circle cx="158" cy="35" r="1" fill="#666"/>
    <circle cx="158" cy="40" r="1" fill="#666"/>
  </g>
</svg>
